<svg xmlns="http://www.w3.org/2000/svg" width="256" height="256" viewBox="0 0 100 100"><rect width="100" height="100" rx="20" fill="#373455"></rect><path d="M44.64 50.32L20 53.76Q22.16 64.24 33.76 64.24L33.76 64.24Q37.12 64.24 39.84 63.12Q42.56 62 44.16 60.72L44.16 60.72Q46.08 61.84 46.08 63.76L46.08 63.76Q46.08 64.88 45.08 65.92Q44.08 66.96 42.36 67.76Q40.64 68.56 38.36 69.04Q36.08 69.52 33.44 69.52L33.44 69.52Q24.16 69.52 18.76 64.48Q13.36 59.44 13.36 49.76L13.36 49.76Q13.36 45.20 14.68 41.64Q16 38.08 18.36 35.60Q20.72 33.12 24 31.80Q27.28 30.48 31.12 30.48L31.12 30.48Q34.72 30.48 37.76 31.68Q40.80 32.88 43 35.08Q45.20 37.28 46.44 40.28Q47.68 43.28 47.68 46.88L47.68 46.88Q47.68 48.64 46.88 49.40Q46.08 50.16 44.64 50.32L44.64 50.32ZM31.04 35.68L31.04 35.68Q26.16 35.68 22.96 39.08Q19.76 42.48 19.60 48.80L19.60 48.80L41.60 45.76Q41.20 41.36 38.52 38.52Q35.84 35.68 31.04 35.68ZM55.84 62.72L55.84 62.72Q58.32 59.36 61.04 56.16Q63.76 52.96 66.48 49.60L66.48 49.60Q63.12 45.52 60.24 41.88Q57.36 38.24 54.32 34.32L54.32 34.32Q54.64 32.72 55.48 31.84Q56.32 30.96 57.68 30.96L57.68 30.96Q59.04 30.96 59.80 31.64Q60.56 32.32 61.44 33.44L61.44 33.44Q63.52 36.24 65.72 39.40Q67.92 42.56 70.32 45.68L70.32 45.68Q73.28 41.92 75.92 38.52Q78.56 35.12 81.36 31.04L81.36 31.04Q81.76 30.96 82.24 30.96L82.24 30.96Q83.92 30.96 84.88 31.72Q85.84 32.48 85.84 33.76L85.84 33.76Q85.84 34.64 85.48 35.44Q85.12 36.24 84.32 37.28L84.32 37.28Q81.84 40.32 79.24 43.48Q76.64 46.64 74.08 49.68L74.08 49.68Q77.20 53.76 80.36 57.72Q83.52 61.68 86.64 65.68L86.64 65.68Q86.48 67.20 85.60 68.08Q84.72 68.96 83.28 68.96L83.28 68.96Q81.92 68.96 81.08 68.28Q80.24 67.60 79.12 66.16L79.12 66.16Q76.96 63.28 74.68 60.04Q72.40 56.80 70.16 53.76L70.16 53.76Q67.36 57.44 64.52 61.28Q61.68 65.12 59.04 68.88L59.04 68.88L57.92 68.88Q56.08 68.88 55.16 68.08Q54.24 67.28 54.24 66.08L54.24 66.08Q54.24 65.44 54.52 64.76Q54.80 64.08 55.84 62.72Z" fill="#fff"></path></svg>